<svg width="24" height="25" viewBox="0 0 24 25" fill="none" xmlns="http://www.w3.org/2000/svg">
<path d="M12 2.94141C10.0716 2.94141 8.18657 3.51323 6.58319 4.58458C4.97982 5.65592 3.73013 7.17866 2.99218 8.96024C2.25422 10.7418 2.06114 12.7022 2.43735 14.5935C2.81355 16.4849 3.74215 18.2221 5.10571 19.5857C6.46928 20.9493 8.20656 21.8779 10.0979 22.2541C11.9892 22.6303 13.9496 22.4372 15.7312 21.6992C17.5127 20.9613 19.0355 19.7116 20.1068 18.1082C21.1782 16.5048 21.75 14.6198 21.75 12.6914C21.7473 10.1064 20.7192 7.62802 18.8913 5.80013C17.0634 3.97224 14.585 2.94414 12 2.94141ZM12 20.9414C10.3683 20.9414 8.77326 20.4576 7.41655 19.551C6.05984 18.6445 5.00242 17.356 4.378 15.8485C3.75358 14.3411 3.5902 12.6823 3.90853 11.0819C4.22685 9.48157 5.01259 8.01156 6.16637 6.85778C7.32016 5.70399 8.79017 4.91826 10.3905 4.59993C11.9909 4.2816 13.6497 4.44498 15.1571 5.0694C16.6646 5.69382 17.9531 6.75125 18.8596 8.10795C19.7661 9.46466 20.25 11.0597 20.25 12.6914C20.2475 14.8787 19.3775 16.9757 17.8309 18.5223C16.2843 20.0689 14.1873 20.9389 12 20.9414ZM16.5 12.6914C16.5 12.8903 16.421 13.0811 16.2803 13.2217C16.1397 13.3624 15.9489 13.4414 15.75 13.4414H12.75V16.4414C12.75 16.6403 12.671 16.8311 12.5303 16.9717C12.3897 17.1124 12.1989 17.1914 12 17.1914C11.8011 17.1914 11.6103 17.1124 11.4697 16.9717C11.329 16.8311 11.25 16.6403 11.25 16.4414V13.4414H8.25C8.05109 13.4414 7.86033 13.3624 7.71967 13.2217C7.57902 13.0811 7.5 12.8903 7.5 12.6914C7.5 12.4925 7.57902 12.3017 7.71967 12.1611C7.86033 12.0204 8.05109 11.9414 8.25 11.9414H11.25V8.94141C11.25 8.74249 11.329 8.55173 11.4697 8.41108C11.6103 8.27042 11.8011 8.19141 12 8.19141C12.1989 8.19141 12.3897 8.27042 12.5303 8.41108C12.671 8.55173 12.75 8.74249 12.75 8.94141V11.9414H15.75C15.9489 11.9414 16.1397 12.0204 16.2803 12.1611C16.421 12.3017 16.5 12.4925 16.5 12.6914Z" fill="url(#paint0_linear_1360_3691)"/>
<defs>
<linearGradient id="paint0_linear_1360_3691" x1="17.07" y1="31.6497" x2="-2.73118" y2="24.7041" gradientUnits="userSpaceOnUse">
<stop stop-color="#D85BF2"/>
<stop offset="1" stop-color="#FE8F38"/>
</linearGradient>
</defs>
</svg>
