<svg width="98" height="38" viewBox="0 0 98 38" fill="none" xmlns="http://www.w3.org/2000/svg">
<g filter="url(#filter0_i_821_3263)">
<path fill-rule="evenodd" clip-rule="evenodd" d="M1.31779 14.7317C1.84631 10.4873 3.06132 6.71053 4.90056 4.82533C8.92427 0.689866 21.5542 -0.0925564 28.8193 2.47814C28.8223 2.49054 28.8253 2.50295 28.8283 2.51537C30.518 3.10625 31.9154 3.87616 32.8432 4.82513C37.7611 9.85476 38.32 28.9674 32.8432 33.4382C27.3665 37.909 10.2658 37.909 4.90079 33.4382C1.44962 30.6209 0.395126 21.9895 1.31779 14.7317Z" fill="url(#paint0_linear_821_3263)"/>
</g>
<path d="M29.2508 2.13559L29.2414 2.09713L28.9861 2.00677C25.269 0.691504 20.2202 0.24328 15.6018 0.638747C13.2886 0.836823 11.0658 1.24792 9.15707 1.8776C7.25593 2.50478 5.62721 3.36162 4.54243 4.4764C3.55157 5.49214 2.75759 6.98364 2.14582 8.72838C1.53172 10.4798 1.08925 12.521 0.821699 14.6692C0.354994 18.3409 0.387336 22.3627 0.976146 25.8337C1.55944 29.2722 2.70928 32.2932 4.58264 33.8239C6.01193 35.0141 8.17474 35.8746 10.6485 36.4404C13.1346 37.0091 15.9845 37.2913 18.8301 37.2913C21.6758 37.2913 24.5324 37.009 27.0321 36.4405C29.521 35.8745 31.7035 35.014 33.1594 33.8255C34.6531 32.6062 35.6798 30.4465 36.3296 27.9128C36.984 25.3613 37.2765 22.3506 37.2412 19.3354C37.2059 16.3193 36.8423 13.2786 36.1725 10.665C35.5067 8.06708 34.5222 5.82704 33.2007 4.47557C32.2481 3.5013 30.8673 2.72831 29.2508 2.13559Z" stroke="#C06EF9"/>
<path d="M19.5366 10.3496C22.8213 10.3496 25.3861 12.0145 25.3861 15.1418C25.3861 17.2116 24.2612 18.539 22.4164 19.034C24.1712 19.214 25.0037 20.0239 25.1386 21.7788L25.5211 25.204H21.5839L21.2914 22.4762C21.2014 21.1263 20.5265 20.6763 18.8166 20.6763H16.1393V27.4429H12.2246V10.3496H19.5366ZM16.1393 17.4816H18.8841C20.504 17.4816 21.3814 16.7841 21.3814 15.5467C21.3814 14.2418 20.504 13.5444 18.8841 13.5444H16.1393V17.4816Z" fill="white"/>
<path d="M95.2102 11.157C95.005 10.0488 94.0404 9.39208 92.9938 9.39208C91.9676 9.39208 91.1672 9.92567 91.1878 10.8082C91.2083 11.6906 92.296 12.0601 93.3837 12.2653C96.3595 12.7784 98.0014 13.5582 98.0014 15.631C98.0014 17.786 95.908 18.7916 93.3632 18.7916C90.3874 18.7916 88.3761 17.396 88.1914 15.0975L90.8799 14.9538C91.0851 16.1031 91.9471 16.8009 93.3016 16.8009C94.2046 16.8009 95.2923 16.4725 95.2718 15.5695C95.2718 14.5228 94.061 14.3586 92.9527 14.1124C90.2642 13.5788 88.4582 12.881 88.4582 10.8492C88.4582 8.71482 90.2232 7.42188 93.1374 7.42188C95.6823 7.42188 97.5088 8.79691 97.8782 11.0339L95.2102 11.157Z" fill="black"/>
<path d="M81.668 7.66797H84.1307L84.1923 9.80235C84.6027 8.36575 85.4237 7.66797 86.8192 7.66797H87.8248V9.69974H86.7987C85.0543 9.69974 84.2949 10.6027 84.2949 12.3472V18.5451H81.668V7.66797Z" fill="black"/>
<path d="M69.6426 13.1067C69.6426 9.65888 71.777 7.42188 75.0401 7.42188C77.8517 7.42188 80.1093 9.35103 80.1503 13.1888V13.825H72.4132C72.5363 15.631 73.4804 16.7188 75.0401 16.7188C76.0252 16.7188 76.9282 16.1441 77.3182 15.2001L80.0067 15.4053C79.3499 17.4781 77.3797 18.7916 75.0401 18.7916C71.777 18.7916 69.6426 16.5546 69.6426 13.1067ZM72.4337 12.0806H77.4413C77.2361 10.213 76.2099 9.49469 75.0401 9.49469C73.583 9.49469 72.6389 10.4593 72.4337 12.0806Z" fill="black"/>
<path d="M58.0547 13.1067C58.0547 9.65888 60.1891 7.42188 63.4522 7.42188C66.2639 7.42188 68.5214 9.35103 68.5624 13.1888V13.825H60.8253C60.9484 15.631 61.8925 16.7188 63.4522 16.7188C64.4373 16.7188 65.3403 16.1441 65.7303 15.2001L68.4188 15.4053C67.762 17.4781 65.7918 18.7916 63.4522 18.7916C60.1891 18.7916 58.0547 16.5546 58.0547 13.1067ZM60.8458 12.0806H65.8534C65.6482 10.213 64.622 9.49469 63.4522 9.49469C61.9951 9.49469 61.051 10.4593 60.8458 12.0806Z" fill="black"/>
<path d="M51.7945 3.97266C54.8114 3.97266 56.9458 5.59397 56.9458 8.36456C56.9458 10.1501 55.8375 11.402 54.4009 11.8124C55.8991 12.0382 56.5558 12.7975 56.6995 14.3367L57.0689 18.5439H54.3804L54.0726 14.7267C53.97 13.4542 53.2106 13.0438 51.3635 13.0438H48.3672V18.5439H45.6992V3.97266H51.7945ZM48.3672 10.7042H51.5072C53.2311 10.7042 54.1957 9.94483 54.1957 8.52875C54.1957 7.09214 53.2311 6.29175 51.5072 6.29175H48.3672V10.7042Z" fill="black"/>
<path d="M90.1061 33.6324C89.4074 33.6324 88.8771 33.4556 88.5151 33.1021C88.1532 32.7486 87.9722 32.2519 87.9722 31.6122V28.4302H86.8105V27.2686H87.5303C87.8754 27.2686 88.048 27.1002 88.048 26.7635V25.2988H89.298V27.2686H90.6112V28.4302H89.3232V32.092C89.3232 32.3445 89.4537 32.4708 89.7147 32.4708H90.7753V33.6324H90.1061Z" fill="#E0A2DB"/>
<path d="M84.5447 29.9696C85.841 30.2222 86.4892 30.8451 86.4892 31.8384C86.4892 32.4529 86.2493 32.9369 85.7695 33.2904C85.2897 33.644 84.6373 33.8208 83.8123 33.8208C82.9285 33.8208 82.2256 33.6187 81.7037 33.2147C81.1902 32.8022 80.925 32.2424 80.9082 31.5353H82.1709C82.2635 32.3266 82.8064 32.7222 83.7997 32.7222C84.2122 32.7222 84.5363 32.6465 84.772 32.495C85.0077 32.3434 85.1255 32.1246 85.1255 31.8384C85.1255 31.4091 84.7846 31.1355 84.1027 31.0176L83.1431 30.8409C81.7626 30.6136 81.0723 30.0075 81.0723 29.0226C81.0723 28.4418 81.2954 27.9746 81.7416 27.6211C82.1877 27.2591 82.8022 27.0781 83.5851 27.0781C84.3763 27.0781 85.0119 27.2675 85.4917 27.6463C85.9715 28.0251 86.2324 28.5554 86.2745 29.2373H84.9866C84.9445 28.8922 84.8014 28.627 84.5573 28.4418C84.3216 28.2482 83.9933 28.1514 83.5724 28.1514C83.1852 28.1514 82.8906 28.2272 82.6886 28.3787C82.495 28.5218 82.3981 28.7196 82.3981 28.9721C82.3981 29.1826 82.4823 29.3551 82.6507 29.4898C82.819 29.6161 83.1052 29.7129 83.5093 29.7802L84.5447 29.9696Z" fill="#E0A2DB"/>
<path d="M76.4606 33.8208C75.7787 33.8208 75.2358 33.6398 74.8317 33.2778C74.4361 32.9074 74.2383 32.4318 74.2383 31.851C74.2383 31.287 74.4277 30.8367 74.8065 30.4999C75.1937 30.1632 75.7493 29.9696 76.4732 29.9191L78.0263 29.8055C78.3377 29.7802 78.4935 29.5992 78.4935 29.2625C78.4935 28.9006 78.3714 28.6312 78.1273 28.4544C77.8832 28.2777 77.5591 28.1893 77.155 28.1893C76.288 28.1893 75.8082 28.5554 75.7156 29.2878H74.4024C74.4866 28.5639 74.7644 28.0167 75.2358 27.6463C75.7072 27.2675 76.3511 27.0781 77.1677 27.0781C78.0263 27.0781 78.6871 27.2886 79.1501 27.7095C79.6214 28.1303 79.8571 28.7743 79.8571 29.6413V32.4697H80.3748V33.6314H79.8066C79.0911 33.6314 78.7207 33.2484 78.6955 32.4823C78.3083 33.3746 77.5633 33.8208 76.4606 33.8208ZM76.7005 32.7222C77.2308 32.7222 77.6643 32.5581 78.001 32.2298C78.3462 31.9015 78.5187 31.4722 78.5187 30.9419V30.702L76.7257 30.8282C75.9766 30.8872 75.602 31.2028 75.602 31.7752C75.602 32.4066 75.9681 32.7222 76.7005 32.7222Z" fill="#E0A2DB"/>
<path d="M70.5882 33.8208C69.6285 33.8208 68.8583 33.5135 68.2775 32.899C67.6967 32.2845 67.4062 31.468 67.4062 30.4494C67.4062 29.4309 67.6967 28.6144 68.2775 27.9999C68.8667 27.3854 69.637 27.0781 70.5882 27.0781C71.4047 27.0781 72.0823 27.3138 72.6211 27.7852C73.1598 28.2482 73.4755 28.8879 73.5681 29.7045H72.217C72.1497 29.2667 71.9645 28.9132 71.6614 28.6438C71.3668 28.3745 71.0048 28.2398 70.5755 28.2398C70.0452 28.2398 69.6159 28.4418 69.2876 28.8459C68.9593 29.2499 68.7952 29.7844 68.7952 30.4494C68.7952 31.1144 68.9593 31.649 69.2876 32.053C69.6243 32.4571 70.0578 32.6591 70.5882 32.6591C71.0259 32.6591 71.4047 32.5244 71.7246 32.2551C72.0444 31.9773 72.2338 31.6111 72.2928 31.1565H73.6312C73.547 31.9731 73.2271 32.6212 72.6716 33.101C72.1244 33.5809 71.4299 33.8208 70.5882 33.8208Z" fill="#E0A2DB"/>
<path d="M63.0088 33.821C62.1502 33.821 61.4558 33.518 60.9254 32.9119C60.4035 32.2974 60.1426 31.4767 60.1426 30.4497C60.1426 29.4227 60.4035 28.6062 60.9254 28.0001C61.4558 27.3856 62.1502 27.0784 63.0088 27.0784C63.9264 27.0784 64.625 27.4277 65.1049 28.1264V24.793H66.4685V33.6316H65.2311V32.5836C64.7429 33.4086 64.0021 33.821 63.0088 33.821ZM63.2992 32.6594C63.8464 32.6594 64.2883 32.4573 64.625 32.0533C64.9618 31.6492 65.1301 31.1147 65.1301 30.4497C65.1301 29.7847 64.9618 29.2502 64.625 28.8461C64.2883 28.4421 63.8464 28.24 63.2992 28.24C62.7605 28.24 62.3312 28.4421 62.0113 28.8461C61.6914 29.2418 61.5315 29.7763 61.5315 30.4497C61.5315 31.1231 61.6914 31.6619 62.0113 32.0659C62.3312 32.4616 62.7605 32.6594 63.2992 32.6594Z" fill="#E0A2DB"/>
<path d="M56.248 33.8208C55.2716 33.8208 54.4887 33.5135 53.8995 32.899C53.3102 32.2845 53.0156 31.468 53.0156 30.4494C53.0156 29.4309 53.3102 28.6144 53.8995 27.9999C54.4887 27.3854 55.2716 27.0781 56.248 27.0781C57.2329 27.0781 58.0158 27.3854 58.5966 27.9999C59.1859 28.606 59.4805 29.4225 59.4805 30.4494C59.4805 31.468 59.1859 32.2845 58.5966 32.899C58.0158 33.5135 57.2329 33.8208 56.248 33.8208ZM54.9096 32.053C55.2463 32.4571 55.6925 32.6591 56.248 32.6591C56.8036 32.6591 57.2456 32.4613 57.5738 32.0657C57.9106 31.6616 58.0789 31.1229 58.0789 30.4494C58.0789 29.776 57.9106 29.2415 57.5738 28.8459C57.2456 28.4418 56.8036 28.2398 56.248 28.2398C55.6925 28.2398 55.2463 28.4418 54.9096 28.8459C54.5729 29.2499 54.4046 29.7844 54.4046 30.4494C54.4046 31.1144 54.5729 31.649 54.9096 32.053Z" fill="#E0A2DB"/>
<path d="M45.6992 33.6316V24.793H49.9418C50.8088 24.793 51.5033 25.0329 52.0252 25.5127C52.5555 25.9841 52.8207 26.6238 52.8207 27.4319C52.8207 28.2232 52.5639 28.863 52.0504 29.3512C51.5369 29.8394 50.8341 30.0835 49.9418 30.0835H47.126V33.6316H45.6992ZM49.8029 28.8082C50.2911 28.8082 50.6699 28.6862 50.9393 28.4421C51.2171 28.1895 51.356 27.8444 51.356 27.4067C51.356 26.9858 51.2171 26.6575 50.9393 26.4218C50.6699 26.1861 50.2911 26.0683 49.8029 26.0683H47.126V28.8082H49.8029Z" fill="#E0A2DB"/>
<defs>
<filter id="filter0_i_821_3263" x="0" y="0" width="37.7441" height="40.2094" filterUnits="userSpaceOnUse" color-interpolation-filters="sRGB">
<feFlood flood-opacity="0" result="BackgroundImageFix"/>
<feBlend mode="normal" in="SourceGraphic" in2="BackgroundImageFix" result="shape"/>
<feColorMatrix in="SourceAlpha" type="matrix" values="0 0 0 0 0 0 0 0 0 0 0 0 0 0 0 0 0 0 127 0" result="hardAlpha"/>
<feOffset dy="2.41834"/>
<feGaussianBlur stdDeviation="3.40986"/>
<feComposite in2="hardAlpha" operator="arithmetic" k2="-1" k3="1"/>
<feColorMatrix type="matrix" values="0 0 0 0 0.902672 0 0 0 0 0.571016 0 0 0 0 0.988261 0 0 0 1 0"/>
<feBlend mode="normal" in2="shape" result="effect1_innerShadow_821_3263"/>
</filter>
<linearGradient id="paint0_linear_821_3263" x1="28.1655" y1="53.6927" x2="-8.14113" y2="40.9743" gradientUnits="userSpaceOnUse">
<stop stop-color="#D391E1"/>
<stop offset="1" stop-color="#FFD9BB"/>
</linearGradient>
</defs>
</svg>
