<svg width="12" height="12" viewBox="0 0 12 12" fill="none" xmlns="http://www.w3.org/2000/svg">
<path d="M2.86848 7.00635L4.75482 6.06322C5.32084 5.78017 5.7798 5.32119 6.06282 4.75515L7.00635 2.86848C7.03671 2.80776 7.08339 2.75668 7.14114 2.72099C7.1989 2.6853 7.26545 2.66639 7.33335 2.66639C7.40124 2.66639 7.4678 2.6853 7.52555 2.72099C7.58331 2.75668 7.62998 2.80776 7.66035 2.86848L8.60355 4.75482C8.88657 5.32085 9.34553 5.77984 9.91155 6.06288L11.7975 7.00635C11.8583 7.0367 11.9094 7.08337 11.9451 7.14112C11.9808 7.19888 11.9997 7.26544 11.9997 7.33335C11.9997 7.40126 11.9808 7.46782 11.9451 7.52558C11.9094 7.58333 11.8583 7.63 11.7975 7.66035L9.91122 8.60355C9.34518 8.88655 8.88622 9.34552 8.60322 9.91155L7.66002 11.7979C7.62965 11.8586 7.58298 11.9097 7.52522 11.9454C7.46747 11.9811 7.40091 12 7.33302 12C7.26512 12 7.19857 11.9811 7.14081 11.9454C7.08306 11.9097 7.03638 11.8586 7.00602 11.7979L6.06282 9.91155C5.77981 9.34552 5.32085 8.88655 4.75482 8.60355L2.86848 7.66002C2.80782 7.62964 2.75682 7.58297 2.72117 7.52525C2.68552 7.46753 2.66664 7.40103 2.66664 7.33318C2.66664 7.26534 2.68552 7.19884 2.72117 7.14112C2.75682 7.08339 2.80782 7.03673 2.86848 7.00635ZM3.10462 2.54442L3.91302 2.13968C3.93897 2.12665 3.96079 2.10665 3.97604 2.08193C3.99129 2.0572 3.99937 2.02873 3.99937 1.99968C3.99937 1.97064 3.99129 1.94216 3.97604 1.91744C3.96079 1.89272 3.93897 1.87272 3.91302 1.85968L3.10462 1.45535C2.86201 1.33406 2.6653 1.13735 2.54402 0.89475L2.13968 0.08635C2.12665 0.0603933 2.10665 0.038572 2.08193 0.0233235C2.0572 0.00807511 2.02873 0 1.99968 0C1.97064 0 1.94216 0.00807511 1.91744 0.0233235C1.89272 0.038572 1.87272 0.0603933 1.85968 0.08635L1.45535 0.89475C1.33406 1.13735 1.13735 1.33406 0.89475 1.45535L0.08635 1.85968C0.0603933 1.87272 0.038572 1.89272 0.0233235 1.91744C0.00807511 1.94216 0 1.97064 0 1.99968C0 2.02873 0.00807511 2.0572 0.0233235 2.08193C0.038572 2.10665 0.0603933 2.12665 0.08635 2.13968L0.894817 2.54395C1.13741 2.66522 1.33412 2.86191 1.45542 3.10448L1.85968 3.91302C1.87272 3.93897 1.89272 3.96079 1.91744 3.97604C1.94216 3.99129 1.97064 3.99937 1.99968 3.99937C2.02873 3.99937 2.0572 3.99129 2.08193 3.97604C2.10665 3.96079 2.12665 3.93897 2.13968 3.91302L2.54388 3.10455C2.66523 2.86198 2.86198 2.66564 3.10462 2.54442Z" fill="white"/>
</svg>
