<svg width="44" height="44" viewBox="0 0 44 44" fill="none" xmlns="http://www.w3.org/2000/svg">
<rect x="0.5" y="0.691406" width="43" height="43" rx="21.5" fill="url(#paint0_linear_1365_3694)"/>
<path d="M22.253 21.9014C22.8197 21.5274 23.2333 21.1591 23.494 20.7964C23.7547 20.4224 23.885 19.9974 23.885 19.5214C23.885 18.9321 23.698 18.4674 23.324 18.1274C22.9613 17.7761 22.4627 17.6004 21.828 17.6004C21.1367 17.6004 20.5927 17.8214 20.196 18.2634C19.8107 18.7054 19.618 19.3514 19.618 20.2014H17.799C17.799 18.8867 18.173 17.8667 18.921 17.1414C19.669 16.4047 20.6493 16.0364 21.862 16.0364C23.0293 16.0364 23.9643 16.3651 24.667 17.0224C25.381 17.6797 25.738 18.5354 25.738 19.5894C25.738 20.3147 25.5397 20.9664 25.143 21.5444C24.7577 22.1224 24.123 22.7004 23.239 23.2784L21.369 24.5194C20.4737 25.0974 19.873 25.8001 19.567 26.6274H25.857V28.1914H17.493C17.493 27.0694 17.7253 26.1061 18.19 25.3014C18.666 24.4967 19.4027 23.7714 20.4 23.1254L22.253 21.9014Z" fill="#D85BF2"/>
<path d="M22.253 21.9014C22.8197 21.5274 23.2333 21.1591 23.494 20.7964C23.7547 20.4224 23.885 19.9974 23.885 19.5214C23.885 18.9321 23.698 18.4674 23.324 18.1274C22.9613 17.7761 22.4627 17.6004 21.828 17.6004C21.1367 17.6004 20.5927 17.8214 20.196 18.2634C19.8107 18.7054 19.618 19.3514 19.618 20.2014H17.799C17.799 18.8867 18.173 17.8667 18.921 17.1414C19.669 16.4047 20.6493 16.0364 21.862 16.0364C23.0293 16.0364 23.9643 16.3651 24.667 17.0224C25.381 17.6797 25.738 18.5354 25.738 19.5894C25.738 20.3147 25.5397 20.9664 25.143 21.5444C24.7577 22.1224 24.123 22.7004 23.239 23.2784L21.369 24.5194C20.4737 25.0974 19.873 25.8001 19.567 26.6274H25.857V28.1914H17.493C17.493 27.0694 17.7253 26.1061 18.19 25.3014C18.666 24.4967 19.4027 23.7714 20.4 23.1254L22.253 21.9014Z" fill="#F6F1EA"/>
<defs>
<linearGradient id="paint0_linear_1365_3694" x1="33.18" y1="63.997" x2="-10.4841" y2="48.6809" gradientUnits="userSpaceOnUse">
<stop stop-color="#D85BF2"/>
<stop offset="1" stop-color="#FE8F38"/>
</linearGradient>
</defs>
</svg>
