<svg width="44" height="44" viewBox="0 0 44 44" fill="none" xmlns="http://www.w3.org/2000/svg">
<rect x="0.5" y="0.691406" width="43" height="43" rx="21.5" fill="url(#paint0_linear_1365_3696)"/>
<path d="M21.607 21.3064C22.287 21.3064 22.8083 21.1307 23.171 20.7794C23.545 20.4281 23.732 19.9747 23.732 19.4194C23.732 18.8414 23.545 18.3937 23.171 18.0764C22.8083 17.7591 22.321 17.6004 21.709 17.6004C21.029 17.6004 20.4963 17.8101 20.111 18.2294C19.737 18.6374 19.55 19.2494 19.55 20.0654H17.731C17.731 18.8074 18.0993 17.8214 18.836 17.1074C19.584 16.3934 20.57 16.0364 21.794 16.0364C22.9387 16.0364 23.8567 16.3311 24.548 16.9204C25.2507 17.4984 25.602 18.2464 25.602 19.1644C25.602 19.7311 25.4603 20.2467 25.177 20.7114C24.8937 21.1647 24.4743 21.5217 23.919 21.7824C24.599 22.0544 25.1203 22.4567 25.483 22.9894C25.8457 23.5107 26.027 24.1284 26.027 24.8424C26.027 25.9077 25.636 26.7747 24.854 27.4434C24.072 28.1121 23.0633 28.4464 21.828 28.4464C20.5587 28.4464 19.516 28.0837 18.7 27.3584C17.8953 26.6331 17.493 25.6244 17.493 24.3324H19.312C19.312 25.1711 19.5387 25.8057 19.992 26.2364C20.4567 26.6671 21.0573 26.8824 21.794 26.8824C22.4967 26.8824 23.0633 26.7011 23.494 26.3384C23.936 25.9644 24.157 25.4601 24.157 24.8254C24.157 24.1907 23.9303 23.6977 23.477 23.3464C23.035 22.9837 22.4117 22.8024 21.607 22.8024H20.74V21.3064H21.607Z" fill="#D85BF2"/>
<path d="M21.607 21.3064C22.287 21.3064 22.8083 21.1307 23.171 20.7794C23.545 20.4281 23.732 19.9747 23.732 19.4194C23.732 18.8414 23.545 18.3937 23.171 18.0764C22.8083 17.7591 22.321 17.6004 21.709 17.6004C21.029 17.6004 20.4963 17.8101 20.111 18.2294C19.737 18.6374 19.55 19.2494 19.55 20.0654H17.731C17.731 18.8074 18.0993 17.8214 18.836 17.1074C19.584 16.3934 20.57 16.0364 21.794 16.0364C22.9387 16.0364 23.8567 16.3311 24.548 16.9204C25.2507 17.4984 25.602 18.2464 25.602 19.1644C25.602 19.7311 25.4603 20.2467 25.177 20.7114C24.8937 21.1647 24.4743 21.5217 23.919 21.7824C24.599 22.0544 25.1203 22.4567 25.483 22.9894C25.8457 23.5107 26.027 24.1284 26.027 24.8424C26.027 25.9077 25.636 26.7747 24.854 27.4434C24.072 28.1121 23.0633 28.4464 21.828 28.4464C20.5587 28.4464 19.516 28.0837 18.7 27.3584C17.8953 26.6331 17.493 25.6244 17.493 24.3324H19.312C19.312 25.1711 19.5387 25.8057 19.992 26.2364C20.4567 26.6671 21.0573 26.8824 21.794 26.8824C22.4967 26.8824 23.0633 26.7011 23.494 26.3384C23.936 25.9644 24.157 25.4601 24.157 24.8254C24.157 24.1907 23.9303 23.6977 23.477 23.3464C23.035 22.9837 22.4117 22.8024 21.607 22.8024H20.74V21.3064H21.607Z" fill="#F6F1EA"/>
<defs>
<linearGradient id="paint0_linear_1365_3696" x1="33.18" y1="63.997" x2="-10.4841" y2="48.6809" gradientUnits="userSpaceOnUse">
<stop stop-color="#D85BF2"/>
<stop offset="1" stop-color="#FE8F38"/>
</linearGradient>
</defs>
</svg>
